<svg xmlns="http://www.w3.org/2000/svg" version="1.1" xmlns:xlink="http://www.w3.org/1999/xlink" xmlns:svgjs="http://svgjs.dev/svgjs" width="100%" height="100%" viewBox="0 0 1000 600"><rect width="1000" height="600" x="0" y="0" fill="white"/><g><circle r="166.66666666666666" cx="357.7661692301432" cy="379.9884574206453" fill="#1ed760" transform="matrix(0.6541092138681454,0,0,0.6541092138681454,0,51.446038281863295)"/><path d="M375.70827674173154 304.98846976473124L375.70827674173154 304.98846976473124Q386.35136234001214 304.98846976473124 397.83046070432084 307.07850167980143Q409.27740473147463 309.1363792577167 416.2227415569387 313.09136272777266L416.2227415569387 313.09136272777266Q418.312773472009 314.24891886535 418.89155154079765 315.18139464284286Q419.4703296095863 316.0817160831808 419.6954099696708 318.6540630555749L419.6954099696708 318.6540630555749L422.23560260490996 344.57045880244556Q422.23560260490996 345.0206195226145 421.07804646733257 345.3743172313187Q419.92049032975524 345.7280149400229 419.6954099696708 344.79553916253L419.6954099696708 344.79553916253Q414.357790001953 326.049560601208 400.24203599094034 318.07528498678624Q386.1262819799277 310.0688550352096 366.67290800119724 310.0688550352096L366.67290800119724 310.0688550352096Q348.859405217368 310.0688550352096 335.77258999531307 317.8180502895468Q322.685774773258 325.599399881039 315.51535758770945 339.586536543432Q308.3449404021609 353.60582754297985 308.3449404021609 372.3518061043019L308.3449404021609 372.3518061043019Q308.3449404021609 388.78267239046926 313.42532567263925 403.2521241101861Q318.5378652802725 417.7215758299029 327.6696970322716 428.62189612542295Q336.80152878427066 439.490062083788 348.73078786874834 445.631540480379Q360.660046953226 451.77301887696996 374.1005598839852 451.77301887696996L374.1005598839852 451.77301887696996Q390.30634581006814 451.77301887696996 402.68576561471474 442.8341131479004Q415.06518541936134 433.9273617559858 421.785441884741 414.4739877772554L421.785441884741 414.4739877772554Q422.01052224482544 413.5736663369175 423.2966957310225 413.8952097084667Q424.5507148800647 414.24890741717087 424.5507148800647 414.7312224744948L424.5507148800647 414.7312224744948L421.3031268274171 440.8726985814499Q420.8529661072481 443.67012591392853 420.27418803845944 444.47398434280166Q419.6954099696708 445.2778427716748 417.6053780546006 446.21031854916765L417.6053780546006 446.21031854916765Q406.512131736151 450.8405430994771 395.61181144063096 452.9305750145473Q384.74364548226583 454.9884525924626 373.61824482666134 454.9884525924626L373.61824482666134 454.9884525924626Q351.6246782126917 454.9884525924626 335.90120734393275 448.17173311561817Q320.1455821380188 441.35501363877376 310.1777376199917 430.1009956345496Q300.24204743911946 418.8791319674803 295.61182288881 405.3421560252563Q290.98159833850065 391.8051800830323 290.98159833850065 378.5897475123576L290.98159833850065 378.5897475123576Q290.98159833850065 361.93380086610574 297.92693516396474 348.4932879353466Q304.87227198942884 335.0849293417423 316.8979940853713 325.3421651837996Q328.95587051846866 315.63155536301184 344.10056331843896 310.29393539529406Q359.27741045556417 304.98846976473124 375.70827674173154 304.98846976473124Z " fill="white" transform="matrix(0.6541092138681454,0,0,0.6541092138681454,0,51.446038281863295)"/><path d="M662.2834008422368 318.39536050503784L662.2834008422368 318.39536050503784Q669.1316767043058 318.39536050503784 676.5178836008574 319.74018809124476Q683.8834008422368 321.06432602227926 688.3523663594782 323.60915360848617L688.3523663594782 323.60915360848617Q689.6971939456851 324.35398119469306 690.0696077387886 324.95398119469303Q690.442021531892 325.53329153952063 690.5868491180988 327.18846395331377L690.5868491180988 327.18846395331377L692.2213318767195 343.8643260222793Q692.2213318767195 344.153981194693 691.4765042905127 344.3815674015896Q690.7316767043058 344.60915360848617 690.5868491180988 344.00915360848614L690.5868491180988 344.00915360848614Q687.1523663594783 331.9470846429689 678.0696077387886 326.8160501602103Q668.9868491180989 321.6643260222792 656.4696077387886 321.6643260222792L656.4696077387886 321.6643260222792Q645.0075387732713 321.6643260222792 636.5868491180988 326.650532918831Q628.1661594629265 331.6574294705551 623.5523663594781 340.6574294705551Q618.9385732560299 349.6781191257275 618.9385732560299 361.74018809124476L618.9385732560299 361.74018809124476Q618.9385732560299 372.3126018843482 622.2075387732714 381.6229467119344Q625.4971939456851 390.9332915395206 631.3730560146506 397.9470846429689Q637.2489180836161 404.94018809124475 644.9247801525817 408.89191222917583Q652.6006422215471 412.84363636710685 661.2489180836161 412.84363636710685L661.2489180836161 412.84363636710685Q671.6765042905126 412.84363636710685 679.6420215318919 407.0919122291758Q687.6075387732712 401.3608777464172 691.9316767043058 388.84363636710685L691.9316767043058 388.84363636710685Q692.0765042905127 388.26432602227925 692.9040904974092 388.4712225740034Q693.7109870491333 388.6988087808999 693.7109870491333 389.00915360848614L693.7109870491333 389.00915360848614L691.6213318767195 405.8298432636586Q691.3316767043058 407.6298432636586 690.9592629112024 408.14708464296893Q690.5868491180988 408.6643260222792 689.242021531892 409.26432602227925L689.242021531892 409.26432602227925Q682.1040904974093 412.24363636710683 675.090297393961 413.58846395331375Q668.0971939456851 414.9126018843482 660.9385732560299 414.9126018843482L660.9385732560299 414.9126018843482Q646.7868491180989 414.9126018843482 636.6696077387885 410.5263949877965Q626.5316767043057 406.14018809124474 620.1178836008576 398.89880878089997Q613.7247801525816 391.6781191257275 610.745469807754 382.9677742981413Q607.7661594629265 374.2574294705551 607.7661594629265 365.75398119469304L607.7661594629265 365.75398119469304Q607.7661594629265 355.0367398153827 612.2351249801679 346.38846395331376Q616.7040904974092 337.7608777464172 624.442021531892 331.4919122291758Q632.2006422215472 325.24363636710683 641.9454698077541 321.80915360848616Q651.7109870491333 318.39536050503784 662.2834008422368 318.39536050503784ZM734.5316767043058 415.07811912572754L734.5316767043058 415.07811912572754Q725.7385732560299 415.07811912572754 719.1799525663747 410.75398119469304Q712.6420215318919 406.42984326365854 709.0627111870645 399.20915360848613Q705.4834008422368 391.9884639533137 705.4834008422368 383.62984326365853L705.4834008422368 383.62984326365853Q705.4834008422368 375.89191222917583 708.3178836008575 370.2229467119344Q711.1523663594782 364.57467084986547 715.9109870491334 360.91260188434825Q720.6696077387885 357.2712225740034 726.2558146353402 355.4919122291758Q731.842021531892 353.6919122291758 737.2213318767195 353.6919122291758L737.2213318767195 353.6919122291758Q746.3040904974092 353.6919122291758 752.7799525663747 358.16087774641716Q759.2558146353402 362.62984326365853 762.6902973939609 369.6436363671068Q766.1040904974092 376.63673981538267 766.1040904974092 384.3746708498655L766.1040904974092 384.3746708498655Q766.1040904974092 393.9126018843482 761.8006422215472 400.7608777464172Q757.4765042905127 407.6298432636586 750.3178836008575 411.35398119469306Q743.1799525663747 415.07811912572754 734.5316767043058 415.07811912572754ZM738.8558146353403 412.24363636710683L738.8558146353403 412.24363636710683Q746.7385732560299 412.24363636710683 751.3730560146506 406.6574294705551Q755.9868491180989 401.0712225740034 755.9868491180989 388.55398119469305L755.9868491180989 388.55398119469305Q755.9868491180989 379.16087774641716 752.9247801525817 371.9401880912448Q749.8834008422368 364.71949843607234 744.5040904974093 360.6229467119344Q739.145469807754 356.5263949877965 732.2971939456851 356.5263949877965L732.2971939456851 356.5263949877965Q724.393745669823 356.5263949877965 719.9247801525817 362.3401880912448Q715.4558146353403 368.153981194693 715.4558146353403 379.0160501602103L715.4558146353403 379.0160501602103Q715.4558146353403 388.0988087808999 718.4351249801679 395.7126018843482Q721.4144353249955 403.3057053326241 726.7109870491333 407.77467084986546Q732.0075387732713 412.24363636710683 738.8558146353403 412.24363636710683ZM854.9040904974092 413.1332915395206L854.9040904974092 413.1332915395206Q854.4489180836161 413.1332915395206 854.4489180836161 412.24363636710683Q854.4489180836161 411.35398119469306 854.9040904974092 411.35398119469306L854.9040904974092 411.35398119469306Q860.6971939456851 411.35398119469306 862.4971939456851 409.3263949877965Q864.2765042905127 407.31949843607237 864.2765042905127 401.0712225740034L864.2765042905127 401.0712225740034L864.2765042905127 377.3815674015896Q864.2765042905127 359.96087774641717 851.4696077387886 359.96087774641717L851.4696077387886 359.96087774641717Q846.1109870491333 359.96087774641717 840.8144353249954 363.4574294705551Q835.53857325603 366.95398119469303 831.5040904974093 372.9126018843482L831.5040904974093 372.9126018843482L830.9040904974092 371.1332915395206Q837.3178836008575 362.19536050503785 843.5661594629264 358.16087774641716Q849.8351249801678 354.1470846429689 856.393745669823 354.1470846429689L856.393745669823 354.1470846429689Q864.1316767043057 354.1470846429689 868.3730560146506 358.53329153952063Q872.6144353249955 362.94018809124475 872.6144353249955 372.1677742981413L872.6144353249955 372.1677742981413L872.6144353249955 401.0712225740034Q872.6144353249955 407.31949843607237 874.3316767043058 409.3263949877965Q876.0489180836161 411.35398119469306 882.0075387732713 411.35398119469306L882.0075387732713 411.35398119469306Q882.4627111870644 411.35398119469306 882.4627111870644 412.24363636710683Q882.4627111870644 413.1332915395206 882.0075387732713 413.1332915395206L882.0075387732713 413.1332915395206Q879.4834008422368 413.1332915395206 875.9040904974092 412.9884639533137Q872.3247801525816 412.84363636710685 868.4558146353403 412.84363636710685L868.4558146353403 412.84363636710685Q864.5868491180989 412.84363636710685 861.0696077387885 412.9884639533137Q857.5730560146507 413.1332915395206 854.9040904974092 413.1332915395206ZM816.4627111870644 413.1332915395206L816.4627111870644 413.1332915395206Q816.0075387732713 413.1332915395206 816.0075387732713 412.24363636710683Q816.0075387732713 411.35398119469306 816.4627111870644 411.35398119469306L816.4627111870644 411.35398119469306Q822.2765042905127 411.35398119469306 823.993745669823 409.3263949877965Q825.6902973939609 407.31949843607237 825.6902973939609 401.0712225740034L825.6902973939609 401.0712225740034L825.6902973939609 377.3815674015896Q825.6902973939609 359.96087774641717 813.0282284284436 359.96087774641717L813.0282284284436 359.96087774641717Q807.6696077387885 359.96087774641717 802.393745669823 363.4574294705551Q797.0971939456851 366.95398119469303 793.0834008422368 372.9126018843482L793.0834008422368 372.9126018843482L792.4834008422368 371.1332915395206Q798.7316767043058 362.19536050503785 805.0006422215472 358.16087774641716Q811.2489180836161 354.1470846429689 817.8075387732713 354.1470846429689L817.8075387732713 354.1470846429689Q825.5454698077541 354.1470846429689 829.8696077387885 358.4712225740034Q834.193745669823 362.77467084986546 834.193745669823 371.87811912572755L834.193745669823 371.87811912572755L834.193745669823 401.0712225740034Q834.193745669823 407.31949843607237 835.9109870491334 409.3263949877965Q837.6075387732714 411.35398119469306 843.5661594629264 411.35398119469306L843.5661594629264 411.35398119469306Q844.0213318767195 411.35398119469306 844.0213318767195 412.24363636710683Q844.0213318767195 413.1332915395206 843.5661594629264 413.1332915395206L843.5661594629264 413.1332915395206Q840.8971939456851 413.1332915395206 837.4006422215472 412.9884639533137Q833.8834008422368 412.84363636710685 830.0144353249954 412.84363636710685L830.0144353249954 412.84363636710685Q826.145469807754 412.84363636710685 822.5661594629264 412.9884639533137Q818.9868491180989 413.1332915395206 816.4627111870644 413.1332915395206ZM778.1868491180988 413.1332915395206L778.1868491180988 413.1332915395206Q777.7316767043059 413.1332915395206 777.7316767043059 412.24363636710683Q777.7316767043059 411.35398119469306 778.1868491180988 411.35398119469306L778.1868491180988 411.35398119469306Q783.9799525663748 411.35398119469306 785.6971939456851 409.3263949877965Q787.4144353249955 407.31949843607237 787.4144353249955 401.0712225740034L787.4144353249955 401.0712225740034L787.4144353249955 371.5677742981413Q787.4144353249955 366.6643260222792 786.2971939456851 364.3470846429689Q785.1799525663747 362.02984326365856 782.2006422215471 362.02984326365856L782.2006422215471 362.02984326365856Q780.7109870491333 362.02984326365856 778.7040904974093 362.62984326365853Q776.6971939456851 363.22984326365855 774.1523663594782 364.26432602227925L774.1523663594782 364.26432602227925Q773.5523663594782 364.42984326365854 773.1799525663747 363.68501567745164Q772.8075387732713 362.94018809124475 773.4075387732713 362.62984326365853L773.4075387732713 362.62984326365853L790.6834008422368 354.4367398153827Q791.1385732560299 354.2919122291758 791.593745669823 354.2919122291758L791.593745669823 354.2919122291758Q792.6282284284438 354.2919122291758 794.2627111870644 357.41605016021026Q795.8971939456851 360.5401880912448 795.8971939456851 366.49880878089994L795.8971939456851 366.49880878089994L795.8971939456851 401.0712225740034Q795.8971939456851 407.31949843607237 797.6144353249955 409.3263949877965Q799.3316767043058 411.35398119469306 805.145469807754 411.35398119469306L805.145469807754 411.35398119469306Q805.5799525663748 411.35398119469306 805.5799525663748 412.24363636710683Q805.5799525663748 413.1332915395206 805.145469807754 413.1332915395206L805.145469807754 413.1332915395206Q802.6006422215472 413.1332915395206 799.1040904974092 412.9884639533137Q795.6075387732712 412.84363636710685 791.7385732560299 412.84363636710685L791.7385732560299 412.84363636710685Q787.8696077387885 412.84363636710685 784.2902973939609 412.9884639533137Q780.7109870491333 413.1332915395206 778.1868491180988 413.1332915395206ZM968.5523663594782 413.1332915395206L968.5523663594782 413.1332915395206Q968.1178836008575 413.1332915395206 968.1178836008575 412.24363636710683Q968.1178836008575 411.35398119469306 968.5523663594782 411.35398119469306L968.5523663594782 411.35398119469306Q974.3661594629265 411.35398119469306 976.145469807754 409.3263949877965Q977.945469807754 407.31949843607237 977.945469807754 401.0712225740034L977.945469807754 401.0712225740034L977.945469807754 377.3815674015896Q977.945469807754 359.96087774641717 965.1385732560299 359.96087774641717L965.1385732560299 359.96087774641717Q959.7592629112023 359.96087774641717 954.4834008422368 363.4574294705551Q949.1868491180988 366.95398119469303 945.1730560146506 372.9126018843482L945.1730560146506 372.9126018843482L944.5730560146507 371.1332915395206Q950.9868491180988 362.19536050503785 957.2351249801678 358.16087774641716Q963.4834008422368 354.1470846429689 970.0420215318919 354.1470846429689L970.0420215318919 354.1470846429689Q977.8006422215472 354.1470846429689 982.0420215318919 358.53329153952063Q986.2834008422368 362.94018809124475 986.2834008422368 372.1677742981413L986.2834008422368 372.1677742981413L986.2834008422368 401.0712225740034Q986.2834008422368 407.31949843607237 988.0006422215471 409.3263949877965Q989.7178836008575 411.35398119469306 995.6765042905128 411.35398119469306L995.6765042905128 411.35398119469306Q996.1109870491333 411.35398119469306 996.1109870491333 412.24363636710683Q996.1109870491333 413.1332915395206 995.6765042905128 413.1332915395206L995.6765042905128 413.1332915395206Q993.1316767043057 413.1332915395206 989.5523663594781 412.9884639533137Q985.9937456698229 412.84363636710685 982.1040904974093 412.84363636710685L982.1040904974093 412.84363636710685Q978.2351249801678 412.84363636710685 974.7385732560299 412.9884639533137Q971.242021531892 413.1332915395206 968.5523663594782 413.1332915395206ZM930.1316767043057 413.1332915395206L930.1316767043057 413.1332915395206Q929.6765042905128 413.1332915395206 929.6765042905128 412.24363636710683Q929.6765042905128 411.35398119469306 930.1316767043057 411.35398119469306L930.1316767043057 411.35398119469306Q935.9247801525815 411.35398119469306 937.6420215318919 409.3263949877965Q939.3592629112023 407.31949843607237 939.3592629112023 401.0712225740034L939.3592629112023 401.0712225740034L939.3592629112023 377.3815674015896Q939.3592629112023 359.96087774641717 926.6971939456851 359.96087774641717L926.6971939456851 359.96087774641717Q921.3385732560299 359.96087774641717 916.0420215318919 363.4574294705551Q910.7661594629265 366.95398119469303 906.7316767043058 372.9126018843482L906.7316767043058 372.9126018843482L906.1316767043057 371.1332915395206Q912.4006422215472 362.19536050503785 918.6489180836161 358.16087774641716Q924.9178836008574 354.1470846429689 931.4558146353403 354.1470846429689L931.4558146353403 354.1470846429689Q939.2144353249954 354.1470846429689 943.53857325603 358.4712225740034Q947.842021531892 362.77467084986546 947.842021531892 371.87811912572755L947.842021531892 371.87811912572755L947.842021531892 401.0712225740034Q947.842021531892 407.31949843607237 949.5592629112024 409.3263949877965Q951.2765042905127 411.35398119469306 957.2351249801678 411.35398119469306L957.2351249801678 411.35398119469306Q957.6902973939609 411.35398119469306 957.6902973939609 412.24363636710683Q957.6902973939609 413.1332915395206 957.2351249801678 413.1332915395206L957.2351249801678 413.1332915395206Q954.545469807754 413.1332915395206 951.0489180836161 412.9884639533137Q947.5523663594781 412.84363636710685 943.6834008422368 412.84363636710685L943.6834008422368 412.84363636710685Q939.8144353249955 412.84363636710685 936.2351249801678 412.9884639533137Q932.6558146353403 413.1332915395206 930.1316767043057 413.1332915395206ZM891.8351249801678 413.1332915395206L891.8351249801678 413.1332915395206Q891.4006422215472 413.1332915395206 891.4006422215472 412.24363636710683Q891.4006422215472 411.35398119469306 891.8351249801678 411.35398119469306L891.8351249801678 411.35398119469306Q897.6489180836161 411.35398119469306 899.3661594629265 409.3263949877965Q901.0834008422368 407.31949843607237 901.0834008422368 401.0712225740034L901.0834008422368 401.0712225740034L901.0834008422368 371.5677742981413Q901.0834008422368 366.6643260222792 899.9661594629264 364.3470846429689Q898.8489180836161 362.02984326365856 895.8696077387885 362.02984326365856L895.8696077387885 362.02984326365856Q894.3799525663748 362.02984326365856 892.3523663594782 362.62984326365853Q890.3454698077541 363.22984326365855 887.8213318767195 364.26432602227925L887.8213318767195 364.26432602227925Q887.2213318767195 364.42984326365854 886.8489180836161 363.68501567745164Q886.4765042905127 362.94018809124475 887.0765042905126 362.62984326365853L887.0765042905126 362.62984326365853L904.3523663594782 354.4367398153827Q904.8075387732713 354.2919122291758 905.242021531892 354.2919122291758L905.242021531892 354.2919122291758Q906.2971939456851 354.2919122291758 907.9316767043058 357.41605016021026Q909.5661594629265 360.5401880912448 909.5661594629265 366.49880878089994L909.5661594629265 366.49880878089994L909.5661594629265 401.0712225740034Q909.5661594629265 407.31949843607237 911.2834008422368 409.3263949877965Q913.0006422215472 411.35398119469306 918.793745669823 411.35398119469306L918.793745669823 411.35398119469306Q919.2489180836161 411.35398119469306 919.2489180836161 412.24363636710683Q919.2489180836161 413.1332915395206 918.793745669823 413.1332915395206L918.793745669823 413.1332915395206Q916.2696077387885 413.1332915395206 912.7730560146506 412.9884639533137Q909.2765042905127 412.84363636710685 905.3868491180989 412.84363636710685L905.3868491180989 412.84363636710685Q901.5178836008575 412.84363636710685 897.9385732560298 412.9884639533137Q894.3799525663748 413.1332915395206 891.8351249801678 413.1332915395206ZM1032.1730560146507 414.9126018843482L1032.1730560146507 414.9126018843482Q1022.9247801525817 414.9126018843482 1016.6765042905125 410.8160501602103Q1010.4075387732713 406.71949843607234 1007.2834008422368 400.1815674015896Q1004.1592629112023 393.6229467119344 1004.1592629112023 386.31949843607237L1004.1592629112023 386.31949843607237Q1004.1592629112023 377.2367398153827 1008.4006422215472 370.0160501602103Q1012.642021531892 362.77467084986546 1019.8834008422367 358.53329153952063Q1027.1040904974093 354.2919122291758 1036.186849118099 354.2919122291758L1036.186849118099 354.2919122291758Q1044.3799525663749 354.2919122291758 1048.7661594629265 358.24363636710683Q1053.1730560146507 362.19536050503785 1053.1730560146507 369.04363636710684L1053.1730560146507 369.04363636710684Q1053.1730560146507 370.6781191257275 1052.8627111870644 371.5677742981413Q1052.5730560146508 372.45742947055516 1051.3730560146505 372.45742947055516L1051.3730560146505 372.45742947055516L1042.745469807754 372.45742947055516Q1043.345469807754 365.17467084986544 1040.1385732560298 361.2229467119344Q1036.9316767043056 357.2712225740034 1031.1178836008576 357.2712225740034L1031.1178836008576 357.2712225740034Q1022.7799525663747 357.2712225740034 1018.393745669823 363.51949843607235Q1013.9868491180988 369.78846395331374 1013.9868491180988 380.5057053326241L1013.9868491180988 380.5057053326241Q1013.9868491180988 389.00915360848614 1016.7385732560299 395.5470846429689Q1019.5109870491334 402.10570533262404 1024.7868491180989 405.9126018843482Q1030.0834008422366 409.6988087808999 1037.3868491180988 409.6988087808999L1037.3868491180988 409.6988087808999Q1041.2558146353404 409.6988087808999 1045.2696077387886 408.51949843607235Q1049.304090497409 407.31949843607237 1052.8627111870644 404.7953605050379L1052.8627111870644 404.7953605050379Q1053.1730560146507 404.48501567745166 1053.690297393961 405.1677742981413Q1054.2075387732712 405.8298432636586 1053.9178836008573 406.28501567745167L1053.9178836008573 406.28501567745167Q1048.5592629112025 410.89880878089997 1043.1799525663746 412.9057053326241Q1037.8213318767193 414.9126018843482 1032.1730560146507 414.9126018843482ZM1045.1247801525815 372.45742947055516L1011.3178836008575 372.7677742981413L1011.1523663594782 370.82294671193443L1045.1247801525815 370.07811912572754L1045.1247801525815 372.45742947055516ZM1106.345469807754 413.1332915395206L1106.345469807754 413.1332915395206Q1105.9109870491334 413.1332915395206 1105.9109870491334 412.24363636710683Q1105.9109870491334 411.35398119469306 1106.345469807754 411.35398119469306L1106.345469807754 411.35398119469306Q1112.1592629112024 411.35398119469306 1113.8765042905127 409.3263949877965Q1115.593745669823 407.31949843607237 1115.593745669823 401.0712225740034L1115.593745669823 401.0712225740034L1115.593745669823 376.92639498779647Q1115.593745669823 367.9884639533137 1112.304090497409 363.89191222917583Q1109.035124980168 359.7953605050379 1101.8765042905127 359.7953605050379L1101.8765042905127 359.7953605050379Q1096.5178836008577 359.7953605050379 1090.8489180836161 363.22984326365855Q1085.2006422215472 366.6643260222792 1081.1661594629263 372.6229467119344L1081.1661594629263 372.6229467119344L1080.5868491180988 370.82294671193443Q1087.1247801525815 362.02984326365856 1093.6213318767195 357.8712225740034Q1100.097193945685 353.6919122291758 1106.8006422215472 353.6919122291758L1106.8006422215472 353.6919122291758Q1114.993745669823 353.6919122291758 1119.5247801525816 358.24363636710683Q1124.0765042905127 362.77467084986546 1124.0765042905127 371.87811912572755L1124.0765042905127 371.87811912572755L1124.0765042905127 401.0712225740034Q1124.0765042905127 407.31949843607237 1125.793745669823 409.3263949877965Q1127.5109870491333 411.35398119469306 1133.304090497409 411.35398119469306L1133.304090497409 411.35398119469306Q1133.7592629112023 411.35398119469306 1133.7592629112023 412.24363636710683Q1133.7592629112023 413.1332915395206 1133.304090497409 413.1332915395206L1133.304090497409 413.1332915395206Q1130.7799525663747 413.1332915395206 1127.283400842237 412.9884639533137Q1123.7868491180989 412.84363636710685 1119.897193945685 412.84363636710685L1119.897193945685 412.84363636710685Q1116.0282284284435 412.84363636710685 1112.4489180836163 412.9884639533137Q1108.890297393961 413.1332915395206 1106.345469807754 413.1332915395206ZM1066.2696077387886 413.1332915395206L1066.2696077387886 413.1332915395206Q1065.8351249801676 413.1332915395206 1065.8351249801676 412.24363636710683Q1065.8351249801676 411.35398119469306 1066.2696077387886 411.35398119469306L1066.2696077387886 411.35398119469306Q1072.0834008422366 411.35398119469306 1073.8006422215472 409.3263949877965Q1075.5178836008577 407.31949843607237 1075.5178836008577 401.0712225740034L1075.5178836008577 401.0712225740034L1075.5178836008577 371.5677742981413Q1075.5178836008577 366.6643260222792 1074.400642221547 364.3470846429689Q1073.283400842237 362.02984326365856 1070.304090497409 362.02984326365856L1070.304090497409 362.02984326365856Q1068.8144353249954 362.02984326365856 1066.8075387732713 362.62984326365853Q1064.7799525663747 363.22984326365855 1062.2558146353404 364.26432602227925L1062.2558146353404 364.26432602227925Q1061.6558146353402 364.42984326365854 1061.283400842237 363.68501567745164Q1060.9109870491334 362.94018809124475 1061.5109870491333 362.62984326365853L1061.5109870491333 362.62984326365853L1078.7868491180989 354.4367398153827Q1079.242021531892 354.2919122291758 1079.6765042905126 354.2919122291758L1079.6765042905126 354.2919122291758Q1080.7316767043058 354.2919122291758 1082.3661594629266 357.41605016021026Q1084.000642221547 360.5401880912448 1084.000642221547 366.49880878089994L1084.000642221547 366.49880878089994L1084.000642221547 401.0712225740034Q1084.000642221547 407.31949843607237 1085.7178836008575 409.3263949877965Q1087.435124980168 411.35398119469306 1093.248918083616 411.35398119469306L1093.248918083616 411.35398119469306Q1093.6834008422368 411.35398119469306 1093.6834008422368 412.24363636710683Q1093.6834008422368 413.1332915395206 1093.248918083616 413.1332915395206L1093.248918083616 413.1332915395206Q1090.7040904974092 413.1332915395206 1087.2075387732712 412.9884639533137Q1083.7109870491336 412.84363636710685 1079.842021531892 412.84363636710685L1079.842021531892 412.84363636710685Q1075.9523663594782 412.84363636710685 1072.3937456698231 412.9884639533137Q1068.8144353249954 413.1332915395206 1066.2696077387886 413.1332915395206ZM1164.586849118099 414.9126018843482L1164.586849118099 414.9126018843482Q1161.0282284284438 414.9126018843482 1157.73857325603 413.7953605050379Q1154.4696077387885 412.6781191257275 1152.3799525663749 410.00915360848614Q1150.2902973939608 407.31949843607237 1150.2902973939608 402.70570533262406L1150.2902973939608 402.70570533262406L1150.2902973939608 367.6988087808999Q1150.2902973939608 364.1194984360723 1149.8558146353403 362.3401880912448Q1149.400642221547 360.5401880912448 1147.7661594629262 360.0229467119344Q1146.1316767043058 359.5057053326241 1142.697193945685 359.5057053326241L1142.697193945685 359.5057053326241Q1142.097193945685 359.5057053326241 1142.097193945685 358.53329153952063Q1142.097193945685 357.5608777464172 1142.697193945685 357.5608777464172L1142.697193945685 357.5608777464172Q1148.6558146353402 357.41605016021026 1152.4627111870645 354.2919122291758Q1156.248918083616 351.1677742981413 1156.7040904974092 346.24363636710683L1156.7040904974092 346.24363636710683Q1156.7040904974092 345.80915360848616 1157.8213318767196 345.80915360848616Q1158.93857325603 345.80915360848616 1158.93857325603 346.24363636710683L1158.93857325603 346.24363636710683L1158.93857325603 397.63673981538267Q1158.93857325603 403.74018809124476 1161.9799525663748 406.71949843607234Q1165.0420215318918 409.6988087808999 1170.7109870491333 409.6988087808999L1170.7109870491333 409.6988087808999Q1174.5799525663747 409.6988087808999 1177.6213318767195 408.4367398153827Q1180.6834008422368 407.17467084986544 1182.6282284284437 405.5401880912448L1182.6282284284437 405.5401880912448Q1183.2075387732712 405.22984326365855 1183.745469807754 405.9126018843482Q1184.2627111870643 406.57467084986547 1183.6627111870644 407.02984326365856L1183.6627111870644 407.02984326365856Q1178.1592629112024 411.1884639533137 1173.7523663594782 413.050532918831Q1169.3661594629266 414.9126018843482 1164.586849118099 414.9126018843482ZM1179.0489180836162 362.94018809124475L1179.0489180836162 362.94018809124475Q1173.2351249801677 361.45053291883096 1167.8765042905127 360.99536050503787Q1162.5178836008577 360.5401880912448 1156.393745669823 360.5401880912448L1156.393745669823 360.5401880912448L1156.393745669823 357.2712225740034Q1162.3523663594783 357.2712225740034 1167.8765042905127 356.8160501602103Q1173.3799525663749 356.3815674015896 1179.648918083616 355.7815674015896L1179.648918083616 355.7815674015896Q1179.93857325603 355.7815674015896 1180.3109870491335 356.8160501602103Q1180.6834008422368 357.8712225740034 1180.6834008422368 359.3608777464172L1180.6834008422368 359.3608777464172Q1180.6834008422368 360.3953605050379 1180.1661594629263 361.74018809124476Q1179.648918083616 363.0850156774517 1179.0489180836162 362.94018809124475ZM1194.8351249801676 413.1332915395206L1194.8351249801676 413.1332915395206Q1194.545469807754 413.1332915395206 1194.545469807754 412.24363636710683Q1194.545469807754 411.35398119469306 1194.8351249801676 411.35398119469306L1194.8351249801676 411.35398119469306Q1200.648918083616 411.35398119469306 1202.5109870491333 409.3263949877965Q1204.3730560146505 407.31949843607237 1204.3730560146505 401.0712225740034L1204.3730560146505 401.0712225740034L1204.3730560146505 373.202257056762Q1204.3730560146505 367.9884639533137 1203.3178836008574 365.5470846429689Q1202.283400842237 363.0850156774517 1199.4489180836163 363.0850156774517L1199.4489180836163 363.0850156774517Q1198.2696077387886 363.0850156774517 1196.6144353249954 363.602257056762Q1194.9799525663748 364.1194984360723 1192.745469807754 365.17467084986544L1192.745469807754 365.17467084986544Q1192.1454698077541 365.31949843607237 1191.7730560146506 364.4919122291758Q1191.400642221547 363.68501567745164 1191.8558146353403 363.3746708498655L1191.8558146353403 363.3746708498655L1211.2213318767194 354.4367398153827Q1211.6765042905126 354.2919122291758 1211.8213318767196 354.2919122291758L1211.8213318767196 354.2919122291758Q1212.1109870491332 354.2919122291758 1212.5661594629264 354.6643260222792Q1213.000642221547 355.0367398153827 1213.000642221547 355.4919122291758L1213.000642221547 355.4919122291758Q1213.000642221547 356.67122257400337 1212.8558146353403 361.28501567745167Q1212.7109870491333 365.91949843607233 1212.7109870491333 373.05742947055506L1212.7109870491333 373.05742947055506L1212.7109870491333 401.0712225740034Q1212.7109870491333 407.31949843607237 1214.4282284284436 409.3263949877965Q1216.1454698077541 411.35398119469306 1222.1040904974093 411.35398119469306L1222.1040904974093 411.35398119469306Q1222.5385732560298 411.35398119469306 1222.5385732560298 412.24363636710683Q1222.5385732560298 413.1332915395206 1222.1040904974093 413.1332915395206L1222.1040904974093 413.1332915395206Q1219.4144353249953 413.1332915395206 1215.9178836008573 412.9884639533137Q1212.4213318767195 412.84363636710685 1208.5316767043057 412.84363636710685L1208.5316767043057 412.84363636710685Q1204.6627111870644 412.84363636710685 1201.1661594629263 412.9884639533137Q1197.6696077387885 413.1332915395206 1194.8351249801676 413.1332915395206ZM1207.3523663594783 336.8712225740034L1207.3523663594783 336.8712225740034Q1204.2282284284438 336.8712225740034 1202.5109870491333 335.2160501602103Q1200.793745669823 333.5815674015896 1200.793745669823 330.602257056762L1200.793745669823 330.602257056762Q1200.793745669823 327.62294671193445 1202.5109870491333 325.9884639533137Q1204.2282284284438 324.35398119469306 1207.3523663594783 324.35398119469306L1207.3523663594783 324.35398119469306Q1210.3316767043057 324.35398119469306 1211.9661594629265 325.9884639533137Q1213.6006422215473 327.62294671193445 1213.6006422215473 330.602257056762L1213.6006422215473 330.602257056762Q1213.6006422215473 336.8712225740034 1207.3523663594783 336.8712225740034ZM1232.3661594629266 413.1332915395206L1232.3661594629266 413.1332915395206Q1231.9316767043056 413.1332915395206 1231.9316767043056 412.24363636710683Q1231.9316767043056 411.35398119469306 1232.3661594629266 411.35398119469306L1232.3661594629266 411.35398119469306Q1238.7799525663745 411.35398119469306 1240.7247801525814 409.4091536084862Q1242.648918083616 407.46432602227924 1242.648918083616 401.0712225740034L1242.648918083616 401.0712225740034L1242.648918083616 367.55398119469305Q1242.648918083616 363.97467084986545 1241.904090497409 362.2574294705551Q1241.1592629112024 360.5401880912448 1238.9247801525817 360.0229467119344Q1236.690297393961 359.5057053326241 1231.7868491180989 359.5057053326241L1231.7868491180989 359.5057053326241Q1231.3316767043057 359.5057053326241 1231.3316767043057 358.53329153952063Q1231.3316767043057 357.5608777464172 1231.7868491180989 357.5608777464172L1231.7868491180989 357.5608777464172Q1238.035124980168 357.5608777464172 1240.1247801525815 356.0712225740034Q1242.2144353249955 354.5815674015896 1242.3592629112022 350.85742947055513L1242.3592629112022 350.85742947055513Q1243.1040904974093 326.13329153952066 1251.442021531892 315.5608777464172Q1259.7799525663745 304.9884639533137 1275.1316767043058 304.9884639533137L1275.1316767043058 304.9884639533137Q1283.0144353249952 304.9884639533137 1287.710987049133 307.28501567745167Q1292.407538773271 309.602257056762 1292.407538773271 312.87122257400335L1292.407538773271 312.87122257400335Q1292.407538773271 315.2712225740034 1290.8351249801676 316.45053291883096Q1289.283400842237 317.650532918831 1287.1937456698229 317.650532918831L1287.1937456698229 317.650532918831Q1285.4144353249953 317.650532918831 1284.1316767043058 316.67811912572756Q1282.8696077387885 315.70570533262406 1281.3799525663749 313.7815674015896L1281.3799525663749 313.7815674015896Q1279.1454698077541 310.802257056762 1276.5385732560298 309.14708464296893Q1273.9316767043056 307.5126018843482 1269.9178836008573 307.5126018843482L1269.9178836008573 307.5126018843482Q1261.7247801525814 307.5126018843482 1256.4282284284436 317.050532918831Q1251.152366359478 326.58846395331375 1251.152366359478 347.7332915395206L1251.152366359478 347.7332915395206L1251.152366359478 401.0712225740034Q1251.152366359478 405.3953605050379 1252.1040904974093 407.6298432636586Q1253.0765042905127 409.8643260222793 1256.2006422215472 410.6091536084861Q1259.345469807754 411.35398119469306 1265.7385732560297 411.35398119469306L1265.7385732560297 411.35398119469306Q1266.1937456698229 411.35398119469306 1266.1937456698229 412.24363636710683Q1266.1937456698229 413.1332915395206 1265.7385732560297 413.1332915395206L1265.7385732560297 413.1332915395206Q1260.8351249801676 413.1332915395206 1256.2006422215472 412.9884639533137Q1251.5868491180986 412.84363636710685 1246.6834008422366 412.84363636710685L1246.6834008422366 412.84363636710685Q1242.7937456698228 412.84363636710685 1239.0075387732713 412.9884639533137Q1235.2006422215472 413.1332915395206 1232.3661594629266 413.1332915395206ZM1269.7730560146506 362.94018809124475L1269.7730560146506 362.94018809124475Q1263.9592629112021 361.45053291883096 1258.6627111870644 360.99536050503787Q1253.3868491180988 360.5401880912448 1247.4282284284436 360.5401880912448L1247.4282284284436 360.5401880912448L1247.4282284284436 357.2712225740034Q1253.2213318767194 357.2712225740034 1258.6627111870644 356.8160501602103Q1264.1040904974093 356.3815674015896 1270.2075387732712 355.7815674015896L1270.2075387732712 355.7815674015896Q1270.6627111870644 355.7815674015896 1270.9523663594782 356.8160501602103Q1271.2627111870643 357.8712225740034 1271.2627111870643 359.3608777464172L1271.2627111870643 359.3608777464172Q1271.2627111870643 360.3953605050379 1270.807538773271 361.74018809124476Q1270.3523663594779 363.0850156774517 1269.7730560146506 362.94018809124475ZM1337.242021531892 355.63673981538267L1337.242021531892 355.63673981538267Q1337.6971939456848 355.63673981538267 1337.6971939456848 356.5263949877965Q1337.6971939456848 357.41605016021026 1337.242021531892 357.41605016021026L1337.242021531892 357.41605016021026Q1333.5178836008572 357.41605016021026 1330.848918083616 359.96087774641717Q1328.1592629112024 362.48501567745166 1325.7799525663745 368.8988087808999L1325.7799525663745 368.8988087808999L1307.593745669823 417.3126018843482Q1302.2351249801677 431.6091536084861 1297.3316767043057 439.8643260222793Q1292.407538773271 448.14018809124474 1287.1109870491332 451.5746708498654Q1281.8351249801676 454.9884639533137 1275.4213318767197 454.9884639533137L1275.4213318767197 454.9884639533137Q1272.2971939456852 454.9884639533137 1270.0627111870645 453.58156740158955Q1267.8282284284437 452.153981194693 1267.8282284284437 449.17467084986544L1267.8282284284437 449.17467084986544Q1267.8282284284437 446.9401880912448 1269.2351249801677 445.82294671193443Q1270.6627111870644 444.70570533262406 1272.442021531892 444.70570533262406L1272.442021531892 444.70570533262406Q1275.4213318767197 444.70570533262406 1276.9109870491334 445.61605016021025Q1278.400642221547 446.5057053326241 1279.8902973939607 447.3953605050379Q1281.3799525663749 448.28501567745167 1283.7592629112023 448.28501567745167L1283.7592629112023 448.28501567745167Q1287.33857325603 448.28501567745167 1290.690297393961 444.93329153952067Q1294.0420215318918 441.58156740158955 1297.9109870491334 433.53329153952063Q1301.8006422215472 425.5057053326241 1307.0144353249952 411.6436363671068L1307.0144353249952 411.6436363671068L1306.848918083616 415.82294671193443L1283.3247801525818 367.9884639533137Q1280.035124980168 361.45053291883096 1278.1730560146507 359.4229467119344Q1276.3109870491335 357.41605016021026 1273.497193945685 357.41605016021026L1273.497193945685 357.41605016021026Q1273.186849118099 357.41605016021026 1273.186849118099 356.5263949877965Q1273.186849118099 355.63673981538267 1273.497193945685 355.63673981538267L1273.497193945685 355.63673981538267Q1275.8765042905125 355.63673981538267 1278.4834008422367 355.7815674015896Q1281.090297393961 355.92639498779647 1283.4696077387885 355.92639498779647L1283.4696077387885 355.92639498779647Q1288.3937456698231 355.92639498779647 1292.1178836008576 355.7815674015896Q1295.842021531892 355.63673981538267 1298.8213318767193 355.63673981538267L1298.8213318767193 355.63673981538267Q1299.1109870491332 355.63673981538267 1299.1109870491332 356.5263949877965Q1299.1109870491332 357.41605016021026 1298.8213318767193 357.41605016021026L1298.8213318767193 357.41605016021026Q1294.0420215318918 357.41605016021026 1291.5799525663747 358.61605016021025Q1289.1385732560298 359.7953605050379 1290.9178836008573 363.22984326365855L1290.9178836008573 363.22984326365855L1311.3178836008574 405.22984326365855L1307.904090497409 411.35398119469306L1322.490297393961 369.33329153952064Q1324.7247801525814 362.62984326365853 1322.4282284284436 360.0229467119344Q1320.1109870491332 357.41605016021026 1312.2282284284433 357.41605016021026L1312.2282284284433 357.41605016021026Q1311.9178836008573 357.41605016021026 1311.9178836008573 356.5263949877965Q1311.9178836008573 355.63673981538267 1312.2282284284433 355.63673981538267L1312.2282284284433 355.63673981538267Q1315.7868491180989 355.63673981538267 1318.993745669823 355.7815674015896Q1322.2006422215468 355.92639498779647 1327.2696077387886 355.92639498779647L1327.2696077387886 355.92639498779647Q1330.5385732560298 355.92639498779647 1332.5454698077538 355.7815674015896Q1334.5730560146503 355.63673981538267 1337.242021531892 355.63673981538267Z " fill="#1ed760" transform="matrix(0.6541092138681454,0,0,0.6541092138681454,0,51.446038281863295)"/></g></svg>